<svg width="44" height="44" viewBox="0 0 44 44" fill="none" xmlns="http://www.w3.org/2000/svg">
<g filter="url(#filter0_d)">
<circle cx="22.4864" cy="17.8601" r="16.5" stroke="#5FB2FF" stroke-width="2"/>
</g>
<path d="M28.2364 14.0268H27.3614V12.4077C27.3614 10.1815 25.3926 8.36011 22.9864 8.36011C20.5801 8.36011 18.6114 10.1815 18.6114 12.4077V14.0268H17.7364C16.7739 14.0268 15.9864 14.7553 15.9864 15.6458V23.7411C15.9864 24.6315 16.7739 25.3601 17.7364 25.3601H28.2364C29.1989 25.3601 29.9864 24.6315 29.9864 23.7411V15.6458C29.9864 14.7553 29.1989 14.0268 28.2364 14.0268ZM22.9864 21.3125C22.0239 21.3125 21.2364 20.5839 21.2364 19.6934C21.2364 18.803 22.0239 18.0744 22.9864 18.0744C23.9489 18.0744 24.7364 18.803 24.7364 19.6934C24.7364 20.5839 23.9489 21.3125 22.9864 21.3125ZM25.6989 14.0268H20.2739V12.4077C20.2739 11.0315 21.4989 9.8982 22.9864 9.8982C24.4739 9.8982 25.6989 11.0315 25.6989 12.4077V14.0268Z" fill="white"/>
<defs>
<filter id="filter0_d" x="0.986359" y="0.360107" width="43" height="43" filterUnits="userSpaceOnUse" color-interpolation-filters="sRGB">
<feFlood flood-opacity="0" result="BackgroundImageFix"/>
<feColorMatrix in="SourceAlpha" type="matrix" values="0 0 0 0 0 0 0 0 0 0 0 0 0 0 0 0 0 0 127 0"/>
<feOffset dy="4"/>
<feGaussianBlur stdDeviation="2"/>
<feColorMatrix type="matrix" values="0 0 0 0 0 0 0 0 0 0 0 0 0 0 0 0 0 0 0.15 0"/>
<feBlend mode="normal" in2="BackgroundImageFix" result="effect1_dropShadow"/>
<feBlend mode="normal" in="SourceGraphic" in2="effect1_dropShadow" result="shape"/>
</filter>
</defs>
</svg>
