<svg width="26" height="22" viewBox="0 0 26 22" fill="none" xmlns="http://www.w3.org/2000/svg">
<path d="M13.4864 4.79282C16.6114 4.79282 19.1682 7.28623 19.1682 10.3337C19.1682 11.054 18.9977 11.7189 18.7704 12.3284L22.0659 15.5976C23.7704 14.2123 25.1341 12.3839 25.9864 10.3337C23.9977 5.45773 19.1682 2.02238 13.4864 2.02238C11.8954 2.02238 10.3614 2.29942 8.9409 2.7981L11.3841 5.18069C12.0659 4.95905 12.7477 4.79282 13.4864 4.79282ZM2.12272 1.80074L4.73636 4.34955L5.24772 4.79282C3.37272 6.23346 1.89545 8.11736 0.986359 10.3337C2.975 15.2097 7.80454 18.6451 13.4864 18.6451C15.2477 18.6451 16.9523 18.3126 18.4864 17.7031L18.9409 18.1464L22.2364 21.3601L23.6568 19.9749L3.59999 0.360107L2.12272 1.80074ZM8.42954 7.89573L10.1909 9.61341C10.1341 9.83504 10.0773 10.0567 10.0773 10.3337C10.0773 12.1622 11.6114 13.6583 13.4864 13.6583C13.7704 13.6583 13.9977 13.6028 14.225 13.6028L15.9864 15.3205C15.2477 15.653 14.3954 15.8746 13.4864 15.8746C10.3614 15.8746 7.80454 13.3812 7.80454 10.3337C7.80454 9.44718 8.03181 8.61604 8.42954 7.89573ZM13.3159 7.00918L16.8954 10.4999V10.3337C16.8954 8.50523 15.3614 7.00918 13.4864 7.00918H13.3159Z" fill="#616A8B"/>
</svg>
